<svg viewBox="0 0 1440 888" fill="none" xmlns="http://www.w3.org/2000/svg">
<g opacity="0.6" clip-path="url(#clip0_1338_543)">
<path d="M-170.63 563.271C116.437 84.5748 380.233 970.003 720.643 430.115M-170.63 563.271C114.685 73.5727 375.543 940.556 720.643 430.115M-170.63 563.271C122.027 129.231 391.728 1060.24 720.643 430.115M-170.63 563.271C119.082 97.5234 386.249 999.454 720.643 430.115M-170.63 563.271C121.31 112.612 390.342 1028.1 720.643 430.115M-170.63 563.271C122.392 146.038 392.276 1094.01 720.643 430.115M-170.63 563.271C130.831 192.004 404.736 1161.88 720.643 430.115M-170.63 563.271C128.828 168.501 401.779 1127.17 720.643 430.115M-170.63 563.271C132.833 215.508 407.692 1196.58 720.643 430.115M-170.63 563.271C133.705 271.283 408.979 1278.93 720.643 430.115M-170.63 563.271C133.246 241.928 408.302 1235.59 720.643 430.115" stroke="url(#paint0_linear_1338_543)" stroke-opacity="0.5"/>
<path d="M1611.22 297.729C1324.16 776.425 1060.36 -109.003 719.95 430.885M1611.22 297.729C1325.91 787.427 1065.05 -79.5557 719.95 430.885M1611.22 297.729C1318.57 731.769 1048.87 -199.241 719.95 430.885M1611.22 297.729C1321.51 763.477 1054.34 -138.454 719.95 430.885M1611.22 297.729C1319.28 748.388 1050.25 -167.104 719.95 430.885M1611.22 297.729C1318.2 714.962 1048.32 -233.008 719.95 430.885M1611.22 297.729C1309.76 668.996 1035.86 -300.876 719.95 430.885M1611.22 297.729C1311.77 692.499 1038.81 -266.174 719.95 430.885M1611.22 297.729C1307.76 645.492 1032.9 -335.578 719.95 430.885M1611.22 297.729C1306.89 589.717 1031.61 -417.929 719.95 430.885M1611.22 297.729C1307.35 619.072 1032.29 -374.587 719.95 430.885" stroke="url(#paint1_linear_1338_543)" stroke-opacity="0.5"/>
<path d="M1687.09 48.2402C1753.18 774.515 830.946 250.221 878.154 1071.48M1687.09 48.2402C1761.32 791.713 855.545 278.054 878.154 1071.48M1687.09 48.2402C1709.18 732.672 748.416 175.206 878.154 1071.48M1687.09 48.2402C1736.28 761.911 799.373 227.008 878.154 1071.48M1687.09 48.2402C1722.16 746.781 773.516 202.489 878.154 1071.48M1687.09 48.2402C1696.42 718.039 722.967 145.618 878.154 1071.48M1687.09 48.2402C1653.95 685.566 660.258 97.6736 878.154 1071.48M1687.09 48.2402C1673.32 704.516 688.848 125.653 878.154 1071.48M1687.09 48.2402C1634.59 666.616 631.669 69.6945 878.154 1071.48M1687.09 48.2402C1592.59 617.709 569.655 -2.51533 878.154 1071.48M1687.09 48.2402C1614.69 643.45 602.294 35.4896 878.154 1071.48" stroke="url(#paint2_linear_1338_543)" stroke-opacity="0.5"/>
<path d="M-87.8925 177.302C491.262 148.769 7.47646 935.617 672.968 918.813M-87.8925 177.302C498.401 140.401 26.5842 913.219 672.968 918.813M-87.8925 177.302C461.16 181.328 -53.2036 1001.59 672.968 918.813M-87.8925 177.302C483.291 159.156 -10.6538 959.241 672.968 918.813M-87.8925 177.302C473.371 170.471 -29.5923 980.598 672.968 918.813M-87.8925 177.302C448.546 191.977 -78.6848 1022.82 672.968 918.813M-87.8925 177.302C419.546 227.971 -121.503 1075.96 672.968 918.813M-87.8925 177.302C436.083 211.701 -97.0853 1051.94 672.968 918.813M-87.8925 177.302C403.008 244.239 -145.92 1099.98 672.968 918.813M-87.8925 177.302C360.895 279.262 -208.099 1151.69 672.968 918.813M-87.8925 177.302C383.059 260.829 -175.373 1124.47 672.968 918.813" stroke="url(#paint3_linear_1338_543)" stroke-opacity="0.5"/>
</g>
<defs>
<linearGradient id="paint0_linear_1338_543" x1="1.00001" y1="549.5" x2="683.344" y2="321.03" gradientUnits="userSpaceOnUse">
<stop stop-color="#2CF599"/>
<stop offset="1" stop-color="#1BD2C2"/>
</linearGradient>
<linearGradient id="paint1_linear_1338_543" x1="1439" y1="351" x2="751.122" y2="542.37" gradientUnits="userSpaceOnUse">
<stop stop-color="#0AAEEA"/>
<stop offset="0.9999" stop-color="#1CD2C2"/>
</linearGradient>
<linearGradient id="paint2_linear_1338_543" x1="1433.5" y1="494.5" x2="923.581" y2="969.608" gradientUnits="userSpaceOnUse">
<stop stop-color="#0AAEEA"/>
<stop offset="0.9999" stop-color="#19CCC9"/>
</linearGradient>
<linearGradient id="paint3_linear_1338_543" x1="3.50002" y1="251" x2="573.209" y2="720.848" gradientUnits="userSpaceOnUse">
<stop stop-color="#2CF599"/>
<stop offset="0.9999" stop-color="#21DEB3"/>
</linearGradient>
<clipPath id="clip0_1338_543">
<rect width="1440" height="888" fill="white"/>
</clipPath>
</defs>
</svg>
