<svg viewBox="0 0 40 24" fill="none" xmlns="http://www.w3.org/2000/svg">
<g clip-path="url(#clip0_1355_1264)">
<path d="M11.2739 8.73368C11.2739 9.22715 11.3286 9.62663 11.4223 9.92428C11.5317 10.2141 11.6646 10.5352 11.8443 10.8877C11.9146 10.9974 11.938 11.0992 11.938 11.1932C11.938 11.3264 11.8599 11.4595 11.688 11.5927L10.8519 12.1567C10.7347 12.235 10.6097 12.2741 10.5081 12.2741C10.3752 12.2741 10.2424 12.2037 10.1096 12.0862C9.92202 11.8825 9.76575 11.671 9.63291 11.4595C9.50007 11.2324 9.36723 10.9817 9.21876 10.6762C8.1795 11.906 6.87456 12.517 5.30394 12.517C4.18653 12.517 3.29573 12.1958 2.63935 11.5535C1.99079 10.9112 1.65479 10.0574 1.65479 8.99217C1.65479 7.8564 2.0533 6.93995 2.86596 6.24282C3.67862 5.54569 4.74914 5.20104 6.12441 5.20104C6.57762 5.20104 7.03865 5.24021 7.53875 5.3107C8.03885 5.3812 8.53894 5.48303 9.0703 5.60052V4.62924C9.0703 3.6188 8.85932 2.90601 8.44517 2.49869C8.02322 2.08355 7.30433 1.88773 6.27287 1.88773C5.80403 1.88773 5.32738 1.94256 4.83509 2.06005C4.34281 2.17755 3.86615 2.32637 3.39731 2.51436C3.18633 2.60836 3.02224 2.66319 2.92847 2.68668C2.8347 2.71018 2.77219 2.72585 2.71749 2.72585C2.52996 2.72585 2.43619 2.59269 2.43619 2.31071V1.66057C2.43619 1.44909 2.45963 1.2846 2.52996 1.1906C2.60028 1.09661 2.71749 1.00261 2.90503 0.908616C3.37387 0.665796 3.92867 0.469974 4.58505 0.305483C5.23361 0.133159 5.92906 0.0548306 6.66358 0.0548306C8.24982 0.0548306 9.4063 0.415144 10.1486 1.13577C10.8832 1.8564 11.2504 2.953 11.2504 4.41775V8.74151H11.2739V8.73368ZM5.87436 10.7624C6.31194 10.7624 6.76516 10.6841 7.24181 10.5196C7.71847 10.3629 8.14824 10.0653 8.50769 9.6658C8.71867 9.41514 8.88276 9.13316 8.9609 8.81201C9.03904 8.49086 9.09374 8.10705 9.09374 7.65274V7.08877C8.71085 6.99478 8.29671 6.91645 7.86694 6.86162C7.44498 6.80679 7.03084 6.78329 6.61669 6.78329C5.72589 6.78329 5.06951 6.95561 4.63193 7.31593C4.19434 7.67624 3.98337 8.18538 3.98337 8.85118C3.98337 9.47781 4.13965 9.94778 4.47565 10.2689C4.79602 10.5979 5.25705 10.7624 5.87436 10.7624ZM16.5561 12.2037C16.3139 12.2037 16.1576 12.1645 16.0482 12.0705C15.9388 11.9922 15.8451 11.8042 15.7669 11.5535L12.6413 1.24543C12.5632 0.979112 12.5241 0.806788 12.5241 0.712794C12.5241 0.501305 12.6335 0.375979 12.8445 0.375979H14.1494C14.3995 0.375979 14.5714 0.415144 14.6651 0.509138C14.7745 0.587467 14.8527 0.775457 14.9308 1.02611L17.1656 9.85379L19.2442 1.02611C19.3145 0.759791 19.3926 0.587467 19.4942 0.509138C19.6036 0.430809 19.7833 0.375979 20.0256 0.375979H21.0961C21.3461 0.375979 21.518 0.415144 21.6274 0.509138C21.7368 0.587467 21.8306 0.775457 21.8775 1.02611L23.9795 9.96345L26.2846 1.02611C26.3627 0.759791 26.4565 0.587467 26.5503 0.509138C26.6597 0.430809 26.8316 0.375979 27.066 0.375979H28.3006C28.5116 0.375979 28.6366 0.48564 28.6366 0.712794C28.6366 0.78329 28.621 0.845953 28.6132 0.924282C28.5975 1.00261 28.5741 1.11227 28.5194 1.2611L25.3157 11.5692C25.2375 11.8355 25.1437 12.0078 25.0344 12.0862C24.925 12.1645 24.753 12.2193 24.5264 12.2193H23.3856C23.1355 12.2193 22.9636 12.1802 22.8542 12.0862C22.7448 11.9922 22.6511 11.8198 22.6042 11.5535L20.5413 2.953L18.494 11.5457C18.4237 11.812 18.3455 11.9843 18.244 12.0783C18.1346 12.1723 17.9548 12.2115 17.7126 12.2115H16.5561V12.2037ZM33.6532 12.564C32.9578 12.564 32.2701 12.4856 31.6059 12.3211C30.9418 12.1645 30.4182 11.9843 30.0744 11.7885C29.8634 11.671 29.715 11.5379 29.6603 11.4125C29.6056 11.2872 29.5821 11.1619 29.5821 11.0366V10.3551C29.5821 10.0731 29.6915 9.93995 29.8869 9.93995C29.965 9.93995 30.0431 9.95561 30.1291 9.97911C30.2072 10.0026 30.3323 10.0574 30.4651 10.1123C30.9183 10.3159 31.4106 10.4726 31.9263 10.5822C32.4577 10.6919 32.9812 10.7389 33.5126 10.7389C34.3487 10.7389 35.0051 10.5901 35.4583 10.3003C35.9115 10.0104 36.1537 9.57963 36.1537 9.03133C36.1537 8.65535 36.0365 8.34987 35.7943 8.09922C35.552 7.84856 35.0988 7.62141 34.4503 7.40209L32.5202 6.79896C31.5513 6.49347 30.8324 6.03916 30.3948 5.43603C29.9572 4.84856 29.7306 4.19843 29.7306 3.50131C29.7306 2.93734 29.8478 2.44386 30.09 2.02089C30.3323 1.59791 30.6526 1.22193 31.0512 0.924282C31.4497 0.618799 31.9029 0.391645 32.4342 0.227154C32.9656 0.0704962 33.5282 0 34.1143 0C34.4034 0 34.7159 0.0156662 35.0051 0.0548306C35.3098 0.0939951 35.5911 0.148825 35.8724 0.203655C36.1381 0.274151 36.3881 0.336815 36.6304 0.415144C36.8726 0.493473 37.0523 0.571802 37.193 0.657964C37.3805 0.767624 37.5134 0.869452 37.5915 0.994778C37.6696 1.10444 37.7087 1.24543 37.7087 1.43342V2.06005C37.7087 2.34204 37.5993 2.48303 37.404 2.48303C37.2946 2.48303 37.1227 2.4282 36.896 2.32637C36.1381 1.98172 35.2864 1.8094 34.3409 1.8094C33.5829 1.8094 32.9812 1.92689 32.5749 2.18538C32.1686 2.44386 31.9498 2.82768 31.9498 3.37598C31.9498 3.75196 32.0826 4.07311 32.3483 4.32376C32.614 4.57441 33.1062 4.8329 33.8095 5.06005L35.7005 5.66319C36.6616 5.96867 37.3493 6.39948 37.7634 6.93995C38.1775 7.48042 38.3729 8.11488 38.3729 8.80418C38.3729 9.37598 38.2557 9.90078 38.0291 10.3551C37.7868 10.8094 37.4665 11.2089 37.0601 11.53C36.646 11.8668 36.1537 12.1018 35.5833 12.2741C34.9582 12.47 34.333 12.564 33.6532 12.564Z" fill="white"/>
<path fill-rule="evenodd" clip-rule="evenodd" d="M36.1697 19.042C31.7938 22.2848 25.4332 24.0002 19.9634 24.0002C12.2978 24.0002 5.39023 21.1569 0.178275 16.4336C-0.235869 16.0577 0.139204 15.5564 0.631488 15.8462C6.27321 19.1282 13.2355 21.1177 20.4322 21.1177C25.2926 21.1177 30.6217 20.1073 35.5367 18.0237C36.2634 17.6947 36.8886 18.5094 36.1697 19.042Z" fill="#FF9900"/>
<path fill-rule="evenodd" clip-rule="evenodd" d="M37.9902 16.9661C37.4276 16.2455 34.2941 16.6215 32.8642 16.7938C32.4422 16.8486 32.3719 16.4727 32.7548 16.1907C35.2553 14.4283 39.3654 14.9374 39.8499 15.5249C40.3266 16.128 39.7171 20.2481 37.3729 22.222C37.0134 22.5275 36.6696 22.3708 36.8259 21.9714C37.365 20.6476 38.5528 17.6711 37.9902 16.9661Z" fill="#FF9900"/>
</g>
<defs>
<clipPath id="clip0_1355_1264">
<rect width="40" height="24" fill="white"/>
</clipPath>
</defs>
</svg>
