<svg viewBox="0 0 40 32" fill="none" xmlns="http://www.w3.org/2000/svg">
<g clip-path="url(#clip0_1355_1221)">
<path d="M8.30814 0C6.02576 0 4.33695 2.00546 4.41254 4.1804C4.48508 6.26992 4.39085 8.97608 3.7122 11.183C3.03153 13.3964 1.88034 14.7985 0 14.9785V17.0109C1.88034 17.1909 3.03153 18.593 3.7122 20.8064C4.39085 23.0133 4.48508 25.7194 4.41254 27.809C4.33695 29.9836 6.02576 31.9894 8.30847 31.9894H31.6949C33.9773 31.9894 35.6658 29.9839 35.5902 27.809C35.5176 25.7194 35.6119 23.0133 36.2905 20.8064C36.9715 18.593 38.1197 17.1909 40 17.0109V14.9785C38.1197 14.7985 36.9715 13.3964 36.2905 11.183C35.6119 8.97642 35.5176 6.26992 35.5902 4.1804C35.6658 2.0058 33.9773 0 31.6949 0H8.3078H8.30814ZM27.1186 19.6915C27.1186 22.6862 24.8936 24.5025 21.201 24.5025H14.9153C14.5408 24.5025 14.2373 24.1978 14.2373 23.8219V8.1675C14.2373 7.7916 14.5408 7.48687 14.9153 7.48687H21.1651C24.2441 7.48687 26.2647 9.16121 26.2647 11.7319C26.2647 13.5363 24.9054 15.1517 23.1736 15.4345V15.5288C25.5312 15.7885 27.1186 17.4274 27.1186 19.6915ZM20.5156 9.64445H16.9315V14.7267H19.9502C22.2837 14.7267 23.5705 13.7833 23.5705 12.0971C23.5705 10.517 22.4641 9.64445 20.5156 9.64445ZM16.9315 16.7434V22.3442H20.6475C23.0769 22.3442 24.3641 21.3655 24.3641 19.5261C24.3641 17.6864 23.041 16.743 20.4912 16.743H16.9315V16.7434Z" fill="#7E13F8"/>
</g>
<defs>
<clipPath id="clip0_1355_1221">
<rect width="40" height="32" fill="white"/>
</clipPath>
</defs>
</svg>
