<svg viewBox="0 0 27 40" fill="none" xmlns="http://www.w3.org/2000/svg">
<g clip-path="url(#clip0_1355_1280)">
<path d="M6.75 39.9998C10.476 39.9998 13.5 37.0132 13.5 33.3332V26.6665H6.75C3.024 26.6665 0 29.6532 0 33.3332C0 37.0132 3.024 39.9998 6.75 39.9998Z" fill="#0ACF83"/>
<path d="M0 20.0002C0 16.3202 3.024 13.3335 6.75 13.3335H13.5V26.6668H6.75C3.024 26.6668 0 23.6802 0 20.0002Z" fill="#A259FF"/>
<path d="M0 6.66667C0 2.98667 3.024 0 6.75 0H13.5V13.3333H6.75C3.024 13.3333 0 10.3467 0 6.66667Z" fill="#F24E1E"/>
<path d="M13.5 0H20.25C23.976 0 27 2.98667 27 6.66667C27 10.3467 23.976 13.3333 20.25 13.3333H13.5V0Z" fill="#FF7262"/>
<path d="M27 20.0002C27 23.6802 23.976 26.6668 20.25 26.6668C16.524 26.6668 13.5 23.6802 13.5 20.0002C13.5 16.3202 16.524 13.3335 20.25 13.3335C23.976 13.3335 27 16.3202 27 20.0002Z" fill="#1ABCFE"/>
</g>
<defs>
<clipPath id="clip0_1355_1280">
<rect width="27" height="40" fill="white"/>
</clipPath>
</defs>
</svg>
