<svg viewBox="0 0 32 40" fill="none" xmlns="http://www.w3.org/2000/svg">
<g clip-path="url(#clip0_1355_1271)">
<path d="M10.0225 38.7944C11.7042 39.467 13.5287 39.8662 15.4444 39.9326C18.0371 40.0226 20.5025 39.4899 22.7066 38.478C20.0635 37.446 17.6698 35.937 15.6269 34.0605C14.3027 36.1678 12.344 37.832 10.0225 38.7944Z" fill="#FF9100"/>
<path d="M15.6267 34.0611C10.9633 29.7749 8.1343 23.5713 8.37338 16.7669C8.38116 16.546 8.39289 16.3252 8.40661 16.1044C7.57141 15.8897 6.69948 15.7587 5.80217 15.7276C4.51776 15.683 3.27392 15.8413 2.09962 16.17C0.854755 18.3371 0.103521 20.8236 0.00993486 23.4868C-0.231591 30.3604 3.95395 36.3662 10.0222 38.795C12.3438 37.8326 14.3024 36.1702 15.6267 34.0611Z" fill="#FFC400"/>
<path d="M15.6267 34.0612C16.7109 32.3369 17.3683 30.3153 17.4448 28.1374C17.6461 22.4082 13.7706 17.4798 8.40665 16.1045C8.39293 16.3253 8.38118 16.5461 8.37342 16.767C8.13432 23.5714 10.9633 29.7751 15.6267 34.0612Z" fill="#FF9100"/>
<path d="M16.8451 0C13.7902 2.4322 11.3778 5.63925 9.91831 9.3337C9.0827 11.4498 8.55761 13.7229 8.4043 16.1057C13.7682 17.4809 17.6438 22.4094 17.4425 28.1386C17.366 30.3166 16.7067 32.3361 15.6244 34.0624C17.6672 35.9407 20.061 37.4479 22.7041 38.4799C28.0091 36.0429 31.7731 30.7988 31.9911 24.5961C32.1322 20.5774 30.5785 16.9957 28.3831 13.9724C26.0646 10.775 16.8451 0 16.8451 0Z" fill="#DD2C00"/>
</g>
<defs>
<clipPath id="clip0_1355_1271">
<rect width="32" height="40" fill="white"/>
</clipPath>
</defs>
</svg>
