<svg viewBox="0 0 36 36" fill="none" xmlns="http://www.w3.org/2000/svg">
<g clip-path="url(#clip0_1341_657)">
<path d="M10.5451 0.126025C8.62992 0.216325 7.32207 0.522025 6.17862 0.971125C4.99542 1.43238 3.99237 2.05112 2.99442 3.05267C1.99662 4.05422 1.38192 5.05787 0.924122 6.24317C0.481022 7.38887 0.180722 8.69792 0.0961224 10.6142C0.0115224 12.5304 -0.00722762 13.1465 0.00222238 18.0347C0.0115224 22.9226 0.0331224 23.5353 0.125972 25.4556C0.217472 27.3704 0.521972 28.6779 0.971222 29.8217C1.43322 31.005 2.05122 32.0076 3.05322 33.0059C4.05507 34.0041 5.05797 34.6173 6.24597 35.0759C7.39077 35.5184 8.70012 35.82 10.6161 35.9039C12.532 35.9879 13.1487 36.0074 18.0354 35.9979C22.9221 35.9886 23.5374 35.9669 25.4571 35.8758C27.3771 35.7848 28.6776 35.478 29.8218 35.0309C31.0051 34.568 32.0085 33.9509 33.006 32.9487C34.0035 31.9464 34.6177 30.942 35.0752 29.7561C35.5188 28.6113 35.8201 27.3021 35.9032 25.3875C35.9872 23.4662 36.007 22.8528 35.9977 17.9655C35.9883 13.0781 35.9662 12.4653 35.8752 10.5458C35.7841 8.62622 35.4792 7.32272 35.0302 6.17822C34.5676 4.99487 33.9502 3.99303 32.9488 2.99402C31.9473 1.99503 30.942 1.38123 29.7567 0.924775C28.611 0.481525 27.3025 0.179575 25.3866 0.0967752C23.4706 0.0139752 22.854 -0.00747481 17.9655 0.00212518C13.077 0.0114252 12.465 0.0324252 10.5451 0.126025ZM10.7554 32.6657C9.00042 32.5893 8.04747 32.2977 7.41237 32.0537C6.57147 31.7297 5.97237 31.338 5.33952 30.7112C4.70652 30.0845 4.31787 29.4833 3.98952 28.6442C3.74292 28.0091 3.44592 27.0572 3.36387 25.3022C3.27462 23.4054 3.25587 22.8359 3.24537 18.0302C3.23487 13.2246 3.25332 12.6557 3.33642 10.7582C3.41142 9.00467 3.70482 8.05067 3.94842 7.41587C4.27242 6.57392 4.66272 5.97587 5.29092 5.34347C5.91912 4.71092 6.51852 4.32137 7.35837 3.99302C7.99287 3.74537 8.94462 3.45092 10.6989 3.36737C12.5971 3.27737 13.1659 3.25937 17.9709 3.24887C22.7758 3.23837 23.3461 3.25637 25.2451 3.34007C26.9986 3.41627 27.9531 3.70682 28.5871 3.95207C29.4283 4.27607 30.0271 4.66517 30.6595 5.29457C31.2921 5.92367 31.6819 6.52097 32.0103 7.36262C32.2582 7.99517 32.5528 8.94662 32.6356 10.7021C32.7259 12.6003 32.7465 13.1696 32.755 17.9741C32.7637 22.7786 32.7468 23.3492 32.6635 25.2461C32.587 27.0011 32.296 27.9543 32.0515 28.5902C31.7275 29.4308 31.3371 30.0302 30.7084 30.6623C30.0799 31.2945 29.4813 31.6839 28.641 32.0123C28.0074 32.2596 27.0544 32.5548 25.3017 32.6384C23.4033 32.7276 22.8345 32.7464 18.0277 32.7569C13.221 32.7674 12.6537 32.7479 10.7554 32.6657ZM25.4295 8.37962C25.4302 8.80687 25.5576 9.22431 25.7956 9.57914C26.0335 9.93397 26.3714 10.2103 26.7664 10.3731C27.1614 10.5359 27.5958 10.5779 28.0147 10.4937C28.4336 10.4096 28.8181 10.2032 29.1197 9.9005C29.4212 9.59783 29.6262 9.21253 29.7088 8.79333C29.7913 8.37414 29.7477 7.93988 29.5834 7.54548C29.4191 7.15108 29.1416 6.81426 28.7858 6.57761C28.4301 6.34097 28.0122 6.21514 27.585 6.21602C27.0123 6.21722 26.4635 6.44581 26.0593 6.85154C25.655 7.25726 25.4285 7.80691 25.4295 8.37962ZM8.75772 18.018C8.76777 23.1228 12.9136 27.2516 18.0172 27.242C23.1211 27.2322 27.2527 23.0868 27.2431 17.982C27.2334 12.8772 23.0866 8.74727 17.9821 8.75732C12.8776 8.76737 8.74812 12.9138 8.75772 18.018ZM12 18.0116C11.9976 16.8249 12.3472 15.6642 13.0046 14.6762C13.6619 13.6882 14.5974 12.9173 15.6929 12.461C16.7883 12.0047 17.9945 11.8835 19.1588 12.1127C20.3232 12.3419 21.3934 12.9112 22.2342 13.7487C23.0749 14.5861 23.6485 15.6541 23.8823 16.8175C24.1162 17.9809 23.9997 19.1875 23.5478 20.2848C23.0959 21.382 22.3287 22.3206 21.3433 22.9819C20.358 23.6431 19.1986 23.9973 18.012 23.9997C17.224 24.0014 16.4434 23.8478 15.7148 23.5477C14.9862 23.2477 14.3239 22.807 13.7656 22.251C13.2073 21.6949 12.764 21.0343 12.4611 20.3069C12.1581 19.5795 12.0014 18.7995 12 18.0116Z" fill="currentColor"/>
</g>
<defs>
<clipPath id="clip0_1341_657">
<rect width="36" height="36" fill="currentColor"/>
</clipPath>
</defs>
</svg>
