<svg viewBox="0 0 40 40" fill="none" xmlns="http://www.w3.org/2000/svg">
<g clip-path="url(#clip0_1355_1183)">
<path d="M0 0H40V40H0V0Z" fill="#F0DB4F"/>
<path d="M36.7261 30.4602C36.4333 28.6351 35.2432 27.1028 31.7185 25.6731C30.4942 25.1104 29.1292 24.7074 28.7223 23.7796C28.5778 23.2397 28.5588 22.9355 28.6501 22.6085C28.9124 21.5477 30.1786 21.2169 31.1824 21.5211C31.8288 21.7378 32.4409 22.2359 32.8098 23.0306C34.536 21.9127 34.5322 21.9203 35.7375 21.1522C35.2965 20.4678 35.0607 20.1522 34.7717 19.8595C33.7337 18.6998 32.3193 18.1028 30.0569 18.1484C29.6653 18.1979 29.2698 18.2511 28.8782 18.3005C27.7489 18.5857 26.6729 19.1788 26.0417 19.9735C24.1482 22.1218 24.6881 25.8823 26.9923 27.4298C29.2622 29.1332 32.5968 29.5211 33.0227 31.1142C33.4371 33.0648 31.5892 33.696 29.7527 33.4716C28.3991 33.1903 27.6463 32.502 26.8326 31.2511C25.3345 32.118 25.3345 32.118 23.7946 33.0039C24.1596 33.8024 24.5436 34.1636 25.1558 34.8557C28.0531 37.7948 35.3041 37.6503 36.6044 33.2017C36.6577 33.0496 37.0075 32.0306 36.7261 30.4602ZM21.7451 18.3842H18.0037C18.0037 21.6161 17.9885 24.8252 17.9885 28.0572C17.9885 30.1142 18.0949 32.0001 17.7603 32.5781C17.2128 33.715 15.7946 33.5743 15.1482 33.3538C14.4904 33.0306 14.1558 32.5705 13.7679 31.9203C13.6615 31.734 13.5816 31.5895 13.555 31.5781C12.5398 32.1979 11.5284 32.8214 10.5132 33.4412C11.0189 34.4792 11.7641 35.3804 12.7185 35.9659C14.1444 36.8214 16.0607 37.0838 18.0645 36.6237C19.3687 36.2435 20.4942 35.4564 21.0835 34.2587C21.9352 32.6884 21.7527 30.7872 21.7451 28.6846C21.7641 25.2549 21.7451 21.8252 21.7451 18.3842Z" fill="#323330"/>
</g>
<defs>
<clipPath id="clip0_1355_1183">
<rect width="40" height="40" fill="white"/>
</clipPath>
</defs>
</svg>
