<svg viewBox="0 0 40 40" fill="none" xmlns="http://www.w3.org/2000/svg">
<path d="M19.9998 5C29.6665 5 37.5015 11.1067 37.5015 18.6417C37.5015 26.175 29.6665 32.2817 20.0015 32.2817C19.0392 32.28 18.0779 32.2187 17.1231 32.0983L9.77647 36.9033C8.94147 37.345 8.64646 37.2967 8.9898 36.215L10.4765 30.085C5.67646 27.6517 2.50146 23.435 2.50146 18.6417C2.50146 11.1083 10.3348 5 20.0015 5M29.8481 18.4333L32.2981 16.06C32.4395 15.9132 32.5184 15.7172 32.5181 15.5134C32.5179 15.3096 32.4385 15.1138 32.2968 14.9673C32.1551 14.8209 31.962 14.7351 31.7583 14.7282C31.5547 14.7212 31.3562 14.7935 31.2048 14.93L27.9915 18.04V15.47C27.9915 15.2614 27.9086 15.0613 27.7611 14.9137C27.6135 14.7662 27.4134 14.6833 27.2048 14.6833C26.9962 14.6833 26.7961 14.7662 26.6485 14.9137C26.501 15.0613 26.4181 15.2614 26.4181 15.47V19.7317C26.3904 19.8534 26.3904 19.9799 26.4181 20.1017V22.5C26.4181 22.7086 26.501 22.9087 26.6485 23.0563C26.7961 23.2038 26.9962 23.2867 27.2048 23.2867C27.4134 23.2867 27.6135 23.2038 27.7611 23.0563C27.9086 22.9087 27.9915 22.7086 27.9915 22.5V20.2283L28.7031 19.54L31.0831 22.9283C31.1426 23.0129 31.2181 23.085 31.3053 23.1404C31.3926 23.1958 31.4899 23.2335 31.5918 23.2513C31.6936 23.2691 31.7979 23.2667 31.8988 23.2441C31.9997 23.2216 32.0952 23.1794 32.1798 23.12C32.2644 23.0606 32.3365 22.9851 32.3919 22.8978C32.4473 22.8105 32.485 22.7132 32.5028 22.6114C32.5206 22.5095 32.5181 22.4052 32.4956 22.3043C32.4731 22.2034 32.4309 22.1079 32.3715 22.0233L29.8481 18.4333ZM24.9181 21.64H22.4848V15.495C22.4755 15.2928 22.3886 15.1021 22.2423 14.9623C22.0959 14.8225 21.9013 14.7445 21.699 14.7445C21.4966 14.7445 21.302 14.8225 21.1557 14.9623C21.0093 15.1021 20.9224 15.2928 20.9131 15.495V22.4267C20.9131 22.86 21.2631 23.2133 21.6981 23.2133H24.9181C25.1268 23.2133 25.3269 23.1305 25.4744 22.9829C25.6219 22.8354 25.7048 22.6353 25.7048 22.4267C25.7048 22.218 25.6219 22.0179 25.4744 21.8704C25.3269 21.7229 25.1268 21.64 24.9181 21.64ZM15.1565 19.8217L16.3165 16.975L17.3798 19.82L15.1565 19.8217ZM19.3615 20.6333L19.3648 20.6067C19.3642 20.4085 19.2886 20.2179 19.1531 20.0733L17.4098 15.4067C17.3367 15.1843 17.1975 14.9895 17.0108 14.8483C16.824 14.7072 16.5987 14.6263 16.3648 14.6167C16.1294 14.6166 15.8995 14.6877 15.7053 14.8206C15.511 14.9536 15.3615 15.1422 15.2765 15.3617L12.5065 22.1533C12.4276 22.3465 12.4286 22.5631 12.5094 22.7555C12.5902 22.9479 12.7441 23.1003 12.9373 23.1792C13.1305 23.2581 13.3471 23.257 13.5394 23.1762C13.7318 23.0954 13.8842 22.9415 13.9631 22.7483L14.5165 21.3933H17.9665L18.4631 22.7267C18.497 22.8263 18.5505 22.9182 18.6206 22.9968C18.6906 23.0754 18.7757 23.1391 18.8708 23.1842C18.9659 23.2293 19.0691 23.2549 19.1743 23.2594C19.2794 23.2639 19.3844 23.2473 19.4831 23.2105C19.5817 23.1736 19.6719 23.1174 19.7484 23.0451C19.8249 22.9728 19.8861 22.8858 19.9284 22.7894C19.9706 22.693 19.9931 22.5891 19.9945 22.4839C19.9959 22.3786 19.9762 22.2742 19.9365 22.1767L19.3615 20.6333ZM13.8231 15.5033C13.8236 15.4 13.8036 15.2977 13.7643 15.2022C13.725 15.1066 13.6673 15.0198 13.5943 14.9467C13.5213 14.8736 13.4346 14.8156 13.3392 14.7761C13.2437 14.7367 13.1414 14.7164 13.0381 14.7167H7.6298C7.42116 14.7167 7.22107 14.7995 7.07354 14.9471C6.92601 15.0946 6.84313 15.2947 6.84313 15.5033C6.84313 15.712 6.92601 15.9121 7.07354 16.0596C7.22107 16.2071 7.42116 16.29 7.6298 16.29H9.56313V22.5167C9.56313 22.7253 9.64601 22.9254 9.79354 23.0729C9.94107 23.2205 10.1412 23.3033 10.3498 23.3033C10.5584 23.3033 10.7585 23.2205 10.9061 23.0729C11.0536 22.9254 11.1365 22.7253 11.1365 22.5167V16.29H13.0365C13.1399 16.2904 13.2424 16.2704 13.338 16.231C13.4337 16.1916 13.5206 16.1337 13.5937 16.0606C13.6668 15.9874 13.7248 15.9005 13.7641 15.8049C13.8035 15.7093 13.8236 15.6068 13.8231 15.5033Z" fill="currentColor"/>
</svg>
