<svg viewBox="0 0 151 142" fill="none" xmlns="http://www.w3.org/2000/svg">
<path d="M61.8169 52.0133C59.7786 47.9777 57.7404 43.942 55.7279 39.7135C55.5987 39.2423 55.4435 38.964 55.2883 38.6857C55.2883 38.6857 55.3125 38.6856 55.3042 38.574C54.9602 37.8699 54.6245 37.2774 54.2888 36.6848C54.2888 36.6848 54.3127 36.6854 54.3036 36.5693C53.736 35.42 53.1775 34.3867 52.6189 33.3534C52.6189 33.3534 52.6425 33.3543 52.6213 33.2666C52.4948 33.0129 52.3895 32.8468 52.2841 32.6807C52.2841 32.6807 52.3073 32.687 52.2866 32.6001C52.1616 32.3467 52.0572 32.1802 51.9528 32.0137C51.9528 32.0137 51.9758 32.0198 51.9551 31.9325C51.8294 31.6793 51.7245 31.5132 51.6195 31.3471C51.6195 31.3471 51.6424 31.353 51.6216 31.2657C51.4953 31.0124 51.3898 30.8465 51.2844 30.6806C51.2844 30.6806 51.3075 30.6868 51.2868 30.6C51.1618 30.3467 51.0575 30.1802 50.9532 30.0138C50.9532 30.0138 50.9761 30.0198 50.9552 29.9324C50.8287 29.6793 50.723 29.5136 50.6173 29.3479C50.6173 29.3479 50.6404 29.354 50.6198 29.2668C50.4937 29.0134 50.3883 28.8472 50.2829 28.681C50.2829 28.681 50.3063 28.6873 50.2857 28.6006C50.1605 28.3473 50.0561 28.1809 49.9516 28.0144C49.9516 28.0144 49.9746 28.0204 49.9539 27.9332C49.8279 27.68 49.7226 27.514 49.6173 27.348C49.6173 27.348 49.6403 27.3541 49.6197 27.2668C49.4937 27.0134 49.3882 26.8472 49.2828 26.6811C49.2828 26.6811 49.3092 26.6898 49.2757 26.5969C49.0184 26.3431 48.7946 26.1822 48.5145 26.1442C48.4167 26.9839 48.3404 27.7006 48.3386 28.4174C48.31 39.7302 48.291 51.043 48.1176 62.3536C44.1952 62.3484 40.424 62.2908 36.6555 62.3691C35.1515 62.4003 34.6255 61.9257 34.6289 60.3784C34.6736 40.3634 34.6632 20.3483 34.6667 0.333252C39.7848 0.333252 44.9029 0.333252 50.1889 0.453606C51.0116 1.91185 51.6609 3.25252 52.3223 4.58717C56.9276 13.8806 61.5354 23.1729 66.1658 32.5127C66.3019 32.3114 66.4109 32.1833 66.484 32.0373C71.6041 21.8145 76.7237 11.5914 81.8268 1.36013C81.975 1.06296 81.9463 0.677528 82.0001 0.333252C87.3404 0.333252 92.6807 0.333252 98.1772 0.333252C98.3247 20.4321 98.3159 40.5309 98.3072 60.6297C98.3069 61.3343 98.3072 62.0388 98.3072 62.8904C93.3543 62.8904 88.5977 62.8904 83.8332 62.6628C83.8821 62.1106 83.9883 61.7861 83.9886 61.4615C83.9982 50.1613 84.0039 38.8612 83.9786 27.561C83.9775 27.0534 83.6817 26.5464 83.5231 26.0391C79.6416 33.8618 75.7595 41.6842 71.8792 49.5074C71.4376 50.3977 71.0055 51.2926 70.317 52.2514C67.4687 52.3535 64.8723 52.3896 62.276 52.4257C62.276 52.4257 62.2744 52.3757 62.2239 52.303C62.0545 52.1579 61.9357 52.0856 61.8169 52.0133Z" fill="currentColor"/>
<path d="M115.5 141C114.886 140.689 114.393 140.601 113.861 140.418C108.174 138.463 103.775 134.966 101.231 129.475C100.393 127.666 100.185 125.565 99.7685 123.338C99.8896 118.64 99.9358 114.202 99.9584 109.764C99.9597 109.51 99.7683 109.254 99.6665 109C99.6098 108.909 99.5409 108.829 99.3572 108.686C99.1649 108.576 99.0809 108.591 99.0026 108.659C92.6612 108.679 86.3198 108.7 79.7828 108.634C79.5284 108.463 79.4549 108.395 79.367 108.343C79.3529 103.889 79.3388 99.4342 79.3782 94.8182C79.4317 94.6565 79.5165 94.6386 79.6821 94.6445C98.6902 94.6559 117.533 94.6598 136.375 94.6698C138.148 94.6707 139.921 94.7106 141.69 94.8819C141.685 103.884 141.675 112.736 141.696 121.588C141.698 122.285 141.918 122.981 142.037 123.677C140.665 132.087 135.554 137.318 127.862 140.36C127.307 140.579 124.491 140.891 124 141.257C120.936 141.376 120.097 141.333 116.789 141.257C116.51 141.231 117.25 141.261 117 141.261C116.75 141.261 115.875 141 115.5 141ZM112.266 121.117C112.318 121.341 112.371 121.565 112.589 121.923C114.068 125.724 117.289 126.625 120.853 126.652C124.552 126.681 127.642 125.428 129.216 121.587C129.299 121.501 129.312 121.401 129.256 120.981C129.274 117.287 129.302 113.593 129.296 109.9C129.295 109.488 129.103 109.077 128.922 108.617C128.834 108.578 128.75 108.591 128.362 108.714C123.24 108.694 118.118 108.675 112.916 108.61C112.826 108.579 112.743 108.597 112.476 108.872C112.441 112.904 112.406 116.936 112.266 121.117Z" fill="currentColor"/>
<path d="M107.706 85.012C107.685 84.4034 107.646 83.7948 107.646 83.1862C107.647 63.2237 107.652 43.2612 107.706 23.1085C107.796 22.836 107.784 22.7574 107.718 22.6823C108.334 22.5763 108.949 22.3788 109.564 22.3779C123.05 22.3578 136.536 22.3595 150.177 22.3452C150.333 26.4514 150.333 30.5695 150.275 34.8875C150.139 35.1449 150.07 35.2121 150.011 35.2889C141.525 35.3088 133.04 35.3289 124.555 35.3485C123.896 35.3501 123.238 35.3488 122.458 35.3488C122.458 39.8054 122.458 44.1449 122.458 48.628C130.09 48.628 137.668 48.628 145.498 48.628C145.498 52.4518 145.498 56.1375 145.418 59.7959C145.337 56.4087 145.337 53.0489 145.337 49.689C145.228 49.69 145.119 49.691 145.01 49.6921C145.01 53.3329 145.01 56.9738 145.01 60.6147C137.537 60.6147 130.064 60.6147 122.391 60.6147C122.391 68.8875 122.391 76.9978 122.391 85.3211C117.56 85.3211 112.927 85.3211 108.099 85.2493C107.846 85.1127 107.78 85.0576 107.706 85.012Z" fill="currentColor"/>
<path d="M45.6747 98.8433C43.3315 99.3281 41.6595 100.484 40.4942 102.75C38.2561 107.102 34.3788 109.705 29.8773 111.303C20.7804 114.531 12.3665 113.421 5.26973 106.57C3.50658 104.868 2.5381 102.34 1.21938 100.182C0.966126 99.7678 0.5 99 0.5 98.5C0.5 97 0.5 96.5 0.489746 94.8213C23.8636 94.6675 47.0812 94.6725 70.2988 94.647C71.0838 94.6462 71.8685 94.3384 72.6533 94.1738C73.6769 89.5012 72.7655 85.1303 70.3217 81.1206C66.2663 74.4664 60.2291 71.2818 52.4541 71.316C49.6825 71.3282 46.9105 71.2769 44.136 71.0223C44.1984 69.4231 44.2635 68.0561 44.3285 66.6892C47.6755 66.6783 51.0224 66.6675 54.56 66.7055C54.7505 66.7545 54.8702 66.7739 54.8702 66.7739L54.9844 66.7166C64.4942 67.426 71.3765 72.1753 75.4669 80.6629C79.9634 89.993 78.1329 101.054 70.2901 108.787C67.6783 111.363 64.4921 113.166 60.9699 114.326C60.3176 114.541 59.6854 114.943 59.1598 115.394C57.3233 116.969 54.6076 116.967 52.9783 115.325C51.396 113.731 51.2795 111.066 52.7205 109.429C54.4179 107.501 57.024 107.173 58.9346 108.845C59.7161 109.529 60.2724 109.535 61.1063 109.153C65.76 107.021 69.2224 103.71 71.2002 98.7908C70.7369 98.5029 70.3649 98.3463 69.9926 98.3456C62.3907 98.331 54.7886 98.3246 47.1867 98.3558C46.682 98.3579 46.1787 98.6735 45.6747 98.8433Z" fill="currentColor"/>
<path d="M34.5553 0.333252C34.6629 20.3483 34.6733 40.3634 34.6286 60.3784C34.6252 61.9257 35.1513 62.4003 36.6552 62.3691C40.4237 62.2908 44.195 62.3484 48.1799 62.4169C48.4926 62.5481 48.5905 62.6138 48.6884 62.6795C48.2246 62.7757 47.7613 62.9526 47.297 62.9553C43.4116 62.9776 39.5237 62.8897 35.6416 63.0057C34.047 63.0533 34.0174 62.2882 34.0189 61.0926C34.0428 41.887 34.0359 22.6813 34.0353 3.4756C34.0353 2.532 34.029 1.5884 34.0127 0.489025C34.1479 0.333252 34.2961 0.333252 34.5553 0.333252Z" fill="currentColor"/>
<path d="M72.4976 94.1775C71.8685 94.3386 71.0838 94.6463 70.2988 94.6472C47.0812 94.6726 23.8636 94.6676 0.489715 94.6671C0.333496 94.6667 0.333496 94.5001 0.333496 94.4167C1.04741 94.2828 1.76131 94.1883 2.47525 94.188C25.7641 94.1801 49.0531 94.1813 72.4976 94.1775Z" fill="currentColor"/>
<path d="M116.417 141.333C116.422 141.282 116.51 141.231 116.633 141.257C116.667 141.333 116.5 141.333 116.417 141.333Z" fill="currentColor"/>
<path d="M150.09 35.3061C150.07 35.2122 150.139 35.145 150.275 35.0438C150.333 35.0001 150.333 35.1668 150.333 35.2501C150.333 35.3334 150.17 35.3233 150.09 35.3061Z" fill="currentColor"/>
<path d="M5.83466 74.9847C12.0622 75.3678 17.1201 79.4848 19.2187 86.0217C20.5005 80.9219 22.7932 76.7482 26.815 73.6457C30.832 70.5468 35.3643 69.2213 40.3825 69.354C41.473 79.1375 33.6866 89.4931 23.0873 90.6018C24.7902 84.5005 27.615 79.177 32.7206 75.2364C32.6039 75.1022 32.4872 74.9681 32.3705 74.834C31.0976 75.7608 29.7239 76.5777 28.5706 77.635C24.96 80.9451 22.2974 84.9663 20.329 89.4226C19.7945 90.6329 19.32 91.0078 17.905 90.8783C11.638 90.3044 7.30203 87.1508 4.82464 81.4557C4.24237 80.1172 4.01612 78.5939 3.80791 77.1298C3.5126 75.0532 3.58463 75.043 5.83466 74.9847Z" fill="currentColor"/>
<path d="M141.694 94.7324C139.921 94.7106 138.148 94.6708 136.376 94.6698C117.533 94.6598 98.6905 94.6559 79.714 94.5462C79.5921 94.3746 79.6041 94.3071 79.616 94.2395C100.193 94.2318 120.769 94.2241 141.516 94.3524C141.689 94.5697 141.691 94.6511 141.694 94.7324Z" fill="currentColor"/>
<path d="M141.69 94.8819C141.691 94.6511 141.688 94.5697 141.67 94.3672C141.866 94.5823 142.262 94.9186 142.262 95.2547C142.256 104.649 142.211 114.044 142.104 123.558C141.918 122.981 141.698 122.285 141.696 121.588C141.675 112.736 141.684 103.884 141.69 94.8819Z" fill="currentColor"/>
<path d="M83.5327 26.1912C83.6817 26.5464 83.9775 27.0534 83.9787 27.561C84.004 38.8611 83.9982 50.1613 83.9886 61.4615C83.9883 61.7861 83.8822 62.1106 83.7486 62.5494C83.6326 61.9491 83.5597 61.2345 83.559 60.5198C83.548 49.1276 83.5462 37.7354 83.5327 26.1912Z" fill="currentColor"/>
<path d="M48.7224 62.5255C48.591 62.6138 48.4931 62.5481 48.3326 62.4191C48.2912 51.043 48.3102 39.7302 48.3387 28.4174C48.3405 27.7006 48.4168 26.9839 48.5293 26.2659C48.6384 26.4228 48.6767 26.581 48.7149 26.7393C48.7286 38.6166 48.7423 50.494 48.7224 62.5255Z" fill="currentColor"/>
<path d="M45.8301 98.829C46.1783 98.6735 46.6817 98.3579 47.1864 98.3558C54.7882 98.3246 62.3903 98.331 69.9923 98.3456C70.3646 98.3463 70.7365 98.5029 71.2152 98.6767C62.8765 98.7826 54.4311 98.7987 45.8301 98.829Z" fill="currentColor"/>
<path d="M62.3315 52.5395C64.8724 52.3896 67.4688 52.3535 70.225 52.3181C70.1946 52.468 70.0037 52.7472 69.8138 52.7465C67.3381 52.7385 64.8626 52.6909 62.3315 52.5395Z" fill="currentColor"/>
<path d="M99.6465 109.155C99.7683 109.255 99.9597 109.51 99.9584 109.764C99.9358 114.202 99.8896 118.64 99.7809 123.196C99.6843 118.646 99.6554 113.978 99.6465 109.155Z" fill="currentColor"/>
<path d="M145.113 60.6133C145.011 56.9738 145.011 53.3329 145.011 49.692C145.12 49.691 145.228 49.69 145.337 49.689C145.337 53.0488 145.337 56.4087 145.367 59.9283C145.336 60.2626 145.275 60.4373 145.113 60.6133Z" fill="currentColor"/>
<path d="M52.6343 33.4756C53.1775 34.3867 53.736 35.42 54.2978 36.5798C53.7506 35.6701 53.2001 34.6339 52.6343 33.4756Z" fill="currentColor"/>
<path d="M44.1873 66.7319C44.2631 68.0562 44.1981 69.4231 44.0536 70.9033C43.9983 69.6026 44.0223 68.1886 44.1873 66.7319Z" fill="currentColor"/>
<path d="M54.3032 36.8015C54.6243 37.2775 54.96 37.8701 55.298 38.5847C54.9728 38.1105 54.6453 37.5143 54.3032 36.8015Z" fill="currentColor"/>
<path d="M55.3022 38.7915C55.4436 38.964 55.5987 39.2423 55.7072 39.5951C55.5457 39.4122 55.4309 39.1548 55.3022 38.7915Z" fill="currentColor"/>
<path d="M48.8106 26.7133C48.6766 26.5812 48.6384 26.4229 48.5854 26.1431C48.7946 26.1824 49.0185 26.3433 49.271 26.6101C49.1686 26.7064 49.0375 26.6968 48.8106 26.7133Z" fill="currentColor"/>
<path d="M51.2983 30.7812C51.3898 30.8465 51.4953 31.0124 51.6175 31.2768C51.527 31.2108 51.4196 31.0463 51.2983 30.7812Z" fill="currentColor"/>
<path d="M49.2969 26.782C49.3881 26.8473 49.4935 27.0134 49.6157 27.2782C49.5253 27.2121 49.4182 27.0475 49.2969 26.782Z" fill="currentColor"/>
<path d="M49.6309 27.4487C49.7227 27.514 49.828 27.68 49.95 27.9444C49.8593 27.8784 49.7518 27.7139 49.6309 27.4487Z" fill="currentColor"/>
<path d="M49.9634 28.116C50.0559 28.1809 50.1603 28.3473 50.2819 28.6121C50.1911 28.5462 50.0832 28.3819 49.9634 28.116Z" fill="currentColor"/>
<path d="M50.2969 28.782C50.3881 28.8473 50.4935 29.0134 50.6157 29.2782C50.5254 29.2121 50.4182 29.0475 50.2969 28.782Z" fill="currentColor"/>
<path d="M50.6313 29.4485C50.7232 29.5137 50.8289 29.6794 50.9512 29.9436C50.8603 29.8776 50.7527 29.7133 50.6313 29.4485Z" fill="currentColor"/>
<path d="M50.9644 30.1155C51.0572 30.1804 51.1615 30.3468 51.2828 30.6115C51.1918 30.5455 51.0838 30.3812 50.9644 30.1155Z" fill="currentColor"/>
<path d="M51.6323 31.448C51.7245 31.5132 51.8295 31.6793 51.951 31.9437C51.8601 31.8777 51.7526 31.7132 51.6323 31.448Z" fill="currentColor"/>
<path d="M51.9644 32.1152C52.057 32.1802 52.1614 32.3467 52.2827 32.6115C52.1918 32.5455 52.084 32.3811 51.9644 32.1152Z" fill="currentColor"/>
<path d="M52.2979 32.7815C52.3893 32.8469 52.4946 33.013 52.6166 33.2776C52.5261 33.2115 52.4189 33.0469 52.2979 32.7815Z" fill="currentColor"/>
<path d="M107.699 22.7578C107.784 22.7574 107.796 22.836 107.729 22.9529C107.702 22.9876 107.679 22.8333 107.699 22.7578Z" fill="currentColor"/>
<path d="M99.0846 108.674C99.0807 108.591 99.1647 108.576 99.2932 108.638C99.277 108.672 99.2219 108.68 99.0846 108.674Z" fill="currentColor"/>
<path d="M79.3667 108.435C79.455 108.395 79.5284 108.463 79.6283 108.61C79.5684 108.625 79.4674 108.576 79.3667 108.435Z" fill="currentColor"/>
<path d="M79.5222 94.2698C79.6037 94.3071 79.5918 94.3747 79.5481 94.5404C79.5164 94.6387 79.4315 94.6565 79.3886 94.6624C79.3733 94.5456 79.401 94.4228 79.5222 94.2698Z" fill="currentColor"/>
<path d="M107.707 85.0923C107.78 85.0576 107.846 85.1127 107.943 85.2288C107.982 85.2801 107.822 85.2861 107.822 85.2861C107.822 85.2861 107.708 85.1726 107.707 85.0923Z" fill="currentColor"/>
<path d="M54.9087 66.6989C54.9841 66.7166 54.8699 66.7739 54.8699 66.7739C54.8699 66.7739 54.7502 66.7544 54.7151 66.7293C54.68 66.7041 54.8332 66.6812 54.9087 66.6989Z" fill="currentColor"/>
<path d="M61.8701 52.1234C61.9355 52.0857 62.0543 52.158 62.2486 52.3021C62.1906 52.327 62.0571 52.2802 61.8701 52.1234Z" fill="currentColor"/>
<path d="M112.318 121.043C112.384 121.149 112.398 121.33 112.418 121.65C112.371 121.565 112.318 121.341 112.318 121.043Z" fill="currentColor"/>
<path d="M129.173 121.623C129.143 121.594 129.156 121.53 129.212 121.377C129.312 121.401 129.299 121.501 129.173 121.623Z" fill="currentColor"/>
<path d="M128.961 108.642C129 108.666 128.834 108.686 128.752 108.671C128.75 108.591 128.834 108.578 128.961 108.642Z" fill="currentColor"/>
<path d="M112.956 108.633C112.996 108.655 112.832 108.685 112.75 108.675C112.743 108.597 112.826 108.579 112.956 108.633Z" fill="currentColor"/>
</svg>
