<svg viewBox="0 0 40 40" fill="none" xmlns="http://www.w3.org/2000/svg">
<g clip-path="url(#clip0_1355_1228)">
<path fill-rule="evenodd" clip-rule="evenodd" d="M40 9.12892V2.44767C39.9997 2.34752 39.9733 2.24919 39.9232 2.16247C39.8731 2.07574 39.8012 2.00366 39.7145 1.95339C39.6279 1.90313 39.5296 1.87644 39.4295 1.87598C39.3293 1.87553 39.2308 1.90132 39.1437 1.95079L34.7438 4.46392C34.5687 4.56454 34.4233 4.70946 34.322 4.88412C34.2207 5.05878 34.1672 5.25703 34.1669 5.45892V12.1402C34.1667 12.2405 34.193 12.339 34.243 12.426C34.293 12.5129 34.365 12.5852 34.4517 12.6355C34.5385 12.6859 34.6369 12.7125 34.7372 12.7128C34.8375 12.713 34.9361 12.6869 35.0231 12.637L39.4231 10.1245C39.5986 10.0237 39.7444 9.87824 39.8457 9.70299C39.947 9.52773 40.0002 9.32884 40 9.12642V9.12892ZM0.858125 1.95204L13.5969 9.25704C13.7705 9.35613 13.967 9.40824 14.1669 9.40824C14.3668 9.40824 14.5632 9.35613 14.7369 9.25704L27.475 1.95204C27.5621 1.90211 27.6608 1.87594 27.7613 1.87616C27.8617 1.87638 27.9603 1.90298 28.0472 1.9533C28.1341 2.00362 28.2062 2.07589 28.2564 2.16287C28.3066 2.24986 28.3331 2.3485 28.3331 2.44892V22.4989C28.3331 22.8908 28.1331 23.2539 27.8019 23.4658L20.0519 28.387L25.235 31.4402C25.6019 31.657 26.06 31.6527 26.4231 31.4252L34.1069 26.6289C34.1891 26.577 34.2568 26.5052 34.3037 26.42C34.3506 26.3349 34.3751 26.2392 34.375 26.142V19.3339C34.375 18.9108 34.6081 18.5239 34.9781 18.3239L39.1569 16.0802C39.2442 16.0335 39.3421 16.0103 39.4411 16.0128C39.5401 16.0152 39.6367 16.0433 39.7216 16.0942C39.8065 16.1451 39.8768 16.2172 39.9256 16.3033C39.9744 16.3895 40 16.4868 40 16.5858V29.137C40 29.5433 39.7831 29.9202 39.4331 30.1252L26.3769 37.7789C26.1967 37.884 25.9914 37.9381 25.7829 37.9354C25.5744 37.9328 25.3705 37.8735 25.1931 37.7639L15.2719 31.6289C15.1887 31.5773 15.1201 31.5054 15.0725 31.4198C15.0249 31.3343 15 31.238 15 31.1402V25.1008C15 24.9089 15.095 24.7308 15.255 24.6239L21.9881 20.1339C22.1451 20.0292 22.2739 19.8875 22.3631 19.7213C22.4524 19.5551 22.4994 19.3695 22.5 19.1808V11.8639C22.5 11.8234 22.4893 11.7836 22.4688 11.7486C22.4484 11.7136 22.419 11.6847 22.3837 11.6648C22.3483 11.645 22.3084 11.6349 22.2678 11.6356C22.2273 11.6363 22.1877 11.6478 22.1531 11.6689L14.7531 16.1089C14.5756 16.215 14.3728 16.2713 14.1661 16.2719C13.9593 16.2724 13.7562 16.2172 13.5781 16.112L6.075 11.6658C6.0402 11.6453 6.00061 11.6343 5.96021 11.6339C5.91981 11.6335 5.88003 11.6438 5.84486 11.6637C5.8097 11.6836 5.78039 11.7124 5.7599 11.7472C5.73941 11.782 5.72845 11.8216 5.72813 11.862V25.0839C5.72802 25.1851 5.70111 25.2845 5.65015 25.3719C5.59919 25.4593 5.52599 25.5317 5.43799 25.5817C5.34999 25.6317 5.25033 25.6574 5.14914 25.6564C5.04795 25.6554 4.94883 25.6276 4.86188 25.5758L0.833125 23.1589C0.578967 23.0061 0.368671 22.7901 0.222683 22.532C0.0766945 22.2739 -1.91672e-05 21.9823 3.59219e-09 21.6858V2.44892C6.38838e-05 2.3485 0.026512 2.24986 0.0766955 2.16287C0.126879 2.07589 0.199036 2.00362 0.28594 1.9533C0.372844 1.90298 0.471444 1.87638 0.571864 1.87616C0.672285 1.87594 0.771001 1.90211 0.858125 1.95204Z" fill="#0073E6"/>
</g>
<defs>
<clipPath id="clip0_1355_1228">
<rect width="40" height="40" fill="white"/>
</clipPath>
</defs>
</svg>
