<svg viewBox="0 0 40 40" fill="none" xmlns="http://www.w3.org/2000/svg">
<g clip-path="url(#clip0_1394_925)">
<path d="M36.8201 30.8272C34.6454 30.7722 32.9599 30.9932 31.5463 31.6006C31.1385 31.7663 30.486 31.7664 30.4316 32.291C30.6492 32.5121 30.6763 32.8711 30.8667 33.1748C31.1931 33.7269 31.7637 34.4728 32.2803 34.8594C32.8511 35.3012 33.4221 35.743 34.02 36.1297C35.0803 36.7926 36.2764 37.1791 37.3094 37.8419C37.9077 38.2283 38.5054 38.7257 39.1035 39.1399C39.4026 39.3606 39.5928 39.7198 39.9734 39.8579V39.775C39.7831 39.5264 39.7287 39.1675 39.5386 38.8913C39.2669 38.6151 38.9949 38.3665 38.723 38.0904C37.9346 37.0134 36.956 36.0744 35.8958 35.3012C35.026 34.6936 33.1229 33.8652 32.7696 32.8433C32.7696 32.8433 32.7423 32.8158 32.7152 32.7882C33.3133 32.733 34.02 32.5121 34.591 32.3463C35.5153 32.0977 36.358 32.1529 37.3094 31.9045C37.7443 31.794 38.1793 31.6559 38.6142 31.5178V31.2694C38.1251 30.7721 37.7716 30.1095 37.255 29.64C35.8687 28.4246 34.3462 27.2373 32.7696 26.2432C31.9268 25.6909 30.8394 25.3318 29.9423 24.8624C29.6163 24.6965 29.0724 24.6138 28.8822 24.3377C28.3928 23.7301 28.1209 22.9293 27.7676 22.2112C26.9795 20.6922 26.218 19.0078 25.5384 17.4061C25.0493 16.329 24.7502 15.252 24.1521 14.2579C21.3521 9.56316 18.3074 6.71875 13.6317 3.92944C12.6258 3.34957 11.4298 3.10096 10.1521 2.79726C9.47269 2.76953 8.7929 2.71444 8.11329 2.68672C7.6784 2.49337 7.24335 1.96878 6.8627 1.72017C5.3135 0.725888 1.31718 -1.42795 0.175403 1.41646C-0.558611 3.2115 1.26278 4.97881 1.88798 5.89027C2.35032 6.5254 2.94824 7.24334 3.27449 7.96147C3.46482 8.43062 3.51904 8.92802 3.70937 9.42508C4.14442 10.6399 4.55202 11.9933 5.12299 13.1257C5.42213 13.7055 5.7482 14.3131 6.12885 14.8377C6.34629 15.1414 6.72677 15.2797 6.80846 15.7767C6.42798 16.3291 6.4007 17.1575 6.18308 17.8479C5.20451 20.9685 5.58516 24.8347 6.9715 27.1268C7.40638 27.817 8.43952 29.3363 9.82587 28.7562C11.0492 28.2592 10.7773 26.685 11.1307 25.3042C11.2124 24.9726 11.158 24.7519 11.321 24.531C11.3212 24.5586 11.321 24.5863 11.321 24.5863C11.7017 25.3595 12.0821 26.1052 12.4355 26.8784C13.2783 28.2314 14.7462 29.6399 15.9695 30.579C16.6221 31.0758 17.1385 31.932 17.9541 32.2359V32.1529H17.8997C17.7365 31.9043 17.4919 31.794 17.2745 31.6006C16.7852 31.1036 16.2413 30.496 15.8608 29.9437C14.7192 28.3971 13.7132 26.685 12.8162 24.9175C12.3813 24.0615 12.0006 23.1225 11.6473 22.2665C11.484 21.9349 11.484 21.438 11.2122 21.2724C10.8044 21.8798 10.2065 22.4046 9.90739 23.1502C9.39116 24.3377 9.33658 25.8013 9.14626 27.3202C9.03762 27.3479 9.09185 27.3202 9.03745 27.3754C8.16769 27.1544 7.86855 26.2432 7.5423 25.4699C6.72677 23.5092 6.59085 20.3609 7.29774 18.0965C7.48807 17.5165 8.3036 15.6939 7.97735 15.1416C7.81432 14.6168 7.27046 14.3131 6.9715 13.8989C6.61813 13.3741 6.23748 12.7114 5.99293 12.1314C5.34043 10.585 5.01419 8.87276 4.30746 7.32616C3.98121 6.60804 3.41041 5.86255 2.94824 5.19987C2.43184 4.45421 1.86086 3.92944 1.45309 3.04569C1.31734 2.74199 1.12684 2.24494 1.34429 1.91351C1.39869 1.69262 1.50732 1.6098 1.72494 1.55454C2.0783 1.25066 3.08416 1.63735 3.43751 1.80297C4.44337 2.21704 5.28602 2.60391 6.12884 3.18377C6.50932 3.45993 6.91708 3.9847 7.40637 4.12278H7.97734C8.84728 4.31595 9.82585 4.17805 10.6414 4.42649C12.0823 4.89582 13.3869 5.58639 14.556 6.33206C18.1173 8.62414 21.053 11.883 23.0376 15.7767C23.3638 16.4117 23.4996 16.9919 23.7987 17.6546C24.3697 19.0078 25.0764 20.3886 25.6472 21.7142C26.218 23.012 26.7617 24.3377 27.5772 25.4148C27.9852 25.9945 29.6161 26.2983 30.3501 26.6022C30.8938 26.8507 31.7366 27.0717 32.2259 27.3754C33.1501 27.9551 34.0744 28.6181 34.9443 29.2533C35.3794 29.5845 36.7384 30.2751 36.8201 30.8272Z" fill="white"/>
<path d="M9.09154 6.8291C8.62937 6.8291 8.3033 6.88454 7.97705 6.96736C7.97705 6.96736 7.97705 6.99508 7.97705 7.02263H8.03145C8.24907 7.46441 8.62937 7.76829 8.90122 8.15481C9.11883 8.59659 9.30898 9.03855 9.5266 9.48051C9.55371 9.45279 9.58083 9.42524 9.58083 9.42524C9.96165 9.14891 10.1518 8.70713 10.1518 8.04445C9.98859 7.8511 9.96148 7.65775 9.82556 7.46441C9.66252 7.18807 9.30898 7.05017 9.09154 6.8291Z" fill="white"/>
</g>
<defs>
<clipPath id="clip0_1394_925">
<rect width="40" height="40" fill="white"/>
</clipPath>
</defs>
</svg>
