<svg viewBox="0 0 40 40" fill="none" xmlns="http://www.w3.org/2000/svg">
<g clip-path="url(#clip0_1355_1155)">
<mask id="mask0_1355_1155" style="mask-type:luminance" maskUnits="userSpaceOnUse" x="0" y="0" width="40" height="40">
<path d="M20 40C31.0457 40 40 31.0457 40 20C40 8.9543 31.0457 0 20 0C8.9543 0 0 8.9543 0 20C0 31.0457 8.9543 40 20 40Z" fill="white"/>
</mask>
<g mask="url(#mask0_1355_1155)">
<path d="M20 40C31.0457 40 40 31.0457 40 20C40 8.9543 31.0457 0 20 0C8.9543 0 0 8.9543 0 20C0 31.0457 8.9543 40 20 40Z" fill="black"/>
<path d="M33.224 35.0044L15.3649 12H12V27.9933H14.6919V15.4186L31.1109 36.6322C31.8518 36.1364 32.5576 35.5922 33.224 35.0044Z" fill="url(#paint0_linear_1355_1155)"/>
<path d="M28.2223 12H25.5557V28H28.2223V12Z" fill="url(#paint1_linear_1355_1155)"/>
</g>
</g>
<defs>
<linearGradient id="paint0_linear_1355_1155" x1="1192.75" y1="1400.89" x2="1901.51" y2="2279.36" gradientUnits="userSpaceOnUse">
<stop stop-color="white"/>
<stop offset="1" stop-color="white" stop-opacity="0"/>
</linearGradient>
<linearGradient id="paint1_linear_1355_1155" x1="158.889" y1="12" x2="154.422" y2="1186.98" gradientUnits="userSpaceOnUse">
<stop stop-color="white"/>
<stop offset="1" stop-color="white" stop-opacity="0"/>
</linearGradient>
<clipPath id="clip0_1355_1155">
<rect width="40" height="40" fill="white"/>
</clipPath>
</defs>
</svg>
