<svg viewBox="0 0 37 40" fill="none" xmlns="http://www.w3.org/2000/svg">
<g clip-path="url(#clip0_1394_917)">
<path d="M16.8345 0.507902C17.8406 -0.0573463 19.1509 -0.0598994 20.156 0.507902C25.2128 3.31272 30.2711 6.11315 35.327 8.91968C36.278 9.44549 36.9141 10.4844 36.9044 11.56V28.4349C36.9115 29.555 36.2125 30.6187 35.2093 31.1326C30.1691 33.9219 25.1316 36.7147 20.0923 39.5041C19.0655 40.0804 17.7289 40.036 16.7341 39.4124C15.2231 38.5526 13.7095 37.697 12.1983 36.838C11.8895 36.6573 11.5414 36.5134 11.3233 36.2195C11.5161 35.9645 11.8607 35.9327 12.1408 35.8214C12.7715 35.6245 13.3508 35.3085 13.9302 35.0018C14.0768 34.9034 14.2557 34.9411 14.3961 35.0292C15.6882 35.7564 16.9689 36.5048 18.2654 37.2251C18.542 37.3818 18.822 37.1737 19.0584 37.0444C24.0043 34.3004 28.9563 31.5668 33.9014 28.8219C34.0846 28.7354 34.1859 28.5445 34.171 28.3475C34.1745 22.7808 34.1719 17.2132 34.1728 11.6465C34.1937 11.4229 34.0619 11.2174 33.856 11.1259C28.8334 8.34932 23.8133 5.56847 18.7915 2.79116C18.7045 2.73245 18.6014 2.70094 18.4958 2.70079C18.3903 2.70064 18.2871 2.73185 18.1999 2.79031C13.1781 5.56847 8.15893 8.35187 3.13714 11.1283C2.93195 11.22 2.79424 11.4221 2.81866 11.6465C2.81953 17.2132 2.81866 22.7808 2.81866 28.3483C2.80995 28.4445 2.83146 28.5409 2.88029 28.6247C2.92912 28.7084 3.00292 28.7755 3.09176 28.8168C4.43185 29.5628 5.77368 30.3035 7.11463 31.0469C7.87008 31.4461 8.79762 31.6832 9.62994 31.3774C10.3644 31.1188 10.8793 30.3831 10.8653 29.6175C10.8722 24.0834 10.8618 18.5483 10.8705 13.015C10.8521 12.7693 11.0895 12.5663 11.3329 12.5895C11.9768 12.5852 12.6215 12.581 13.2654 12.5912C13.5342 12.5852 13.7191 12.8497 13.6859 13.0973C13.6833 18.6665 13.6928 24.2358 13.6816 29.8051C13.6833 31.2893 13.0621 32.9044 11.6635 33.6306C9.94047 34.5068 7.81083 34.321 6.10863 33.4808C4.63502 32.7588 3.22875 31.9068 1.7813 31.1333C0.775435 30.6222 0.079958 29.5543 0.0870384 28.435V11.56C0.07649 10.4621 0.737865 9.40436 1.71844 8.8862C6.75772 6.09457 11.7961 3.30081 16.8345 0.507902Z" fill="#8CC84B"/>
<path d="M21.2307 12.1971C23.4285 12.0582 25.7814 12.1148 27.7592 13.1777C29.2904 13.9921 30.1394 15.7015 30.1664 17.3714C30.1236 17.5967 29.8837 17.7209 29.6647 17.7055C29.027 17.7046 28.3892 17.714 27.7515 17.7012C27.481 17.7114 27.3238 17.4666 27.2898 17.2318C27.1066 16.4328 26.6627 15.6415 25.8966 15.2561C24.7205 14.6781 23.3568 14.7072 22.0744 14.7192C21.1382 14.768 20.1315 14.8476 19.3383 15.388C18.7294 15.7974 18.5444 16.6238 18.7617 17.2893C18.9666 17.7672 19.5286 17.9213 19.9884 18.0635C22.6371 18.7435 25.4438 18.6758 28.042 19.5707C29.1176 19.9355 30.1699 20.6448 30.538 21.7503C31.0197 23.232 30.8085 25.0031 29.7346 26.1926C28.8637 27.1714 27.5953 27.7042 26.3302 27.9935C24.6472 28.3619 22.9007 28.3713 21.1915 28.2077C19.5844 28.0279 17.9119 27.6134 16.6713 26.5385C15.6104 25.6343 15.0922 24.2253 15.1436 22.8655C15.1559 22.6358 15.3888 22.4757 15.613 22.4945C16.2551 22.4894 16.8973 22.4877 17.5394 22.4954C17.7959 22.4774 17.9861 22.695 17.9992 22.9323C18.1177 23.6935 18.4092 24.4926 19.0854 24.9439C20.3905 25.7704 22.0282 25.7138 23.5226 25.737C24.7607 25.6831 26.1504 25.6667 27.1608 24.8635C27.6939 24.4053 27.8518 23.6388 27.7077 22.9794C27.5517 22.4226 26.9583 22.1632 26.4488 21.9935C23.8341 21.1816 20.996 21.4762 18.4066 20.5581C17.3553 20.1934 16.3388 19.5039 15.9349 18.4438C15.3714 16.9433 15.6296 15.0874 16.8161 13.9381C17.9729 12.7948 19.6429 12.3547 21.2307 12.1971Z" fill="#8CC84B"/>
</g>
<defs>
<clipPath id="clip0_1394_917">
<rect width="37" height="40" fill="white"/>
</clipPath>
</defs>
</svg>
