<svg viewBox="0 0 150 160" fill="none" xmlns="http://www.w3.org/2000/svg">
<path d="M85.7116 0C50.2059 0 21.4233 29.1911 21.4233 65.2007V137.644C21.4233 149.646 31.0192 159.378 42.8528 159.378C54.6863 159.378 64.2822 149.646 64.2822 137.644V130.401H85.7116C121.217 130.401 150 101.21 150 65.2007C150 29.1911 121.217 0 85.7116 0ZM85.7116 86.9343H64.2822V65.2007C64.2822 53.1992 73.8781 43.4671 85.7116 43.4671C97.5452 43.4671 107.141 53.1992 107.141 65.2007C107.141 77.2022 97.5452 86.9343 85.7116 86.9343Z" fill="currentColor"/>
<path d="M28.5709 14.4908C28.5709 6.48634 22.1753 0 14.288 0C6.40061 0 0 6.48634 0 14.4908C0 22.4952 6.39557 28.9815 14.288 28.9815C22.1804 28.9815 28.5759 22.4952 28.5759 14.4908H28.5709Z" fill="currentColor"/>
</svg>
