<svg viewBox="0 0 41 36" fill="none" xmlns="http://www.w3.org/2000/svg">
<path d="M20.1302 21.1878C22.0992 21.1878 23.6954 19.618 23.6954 17.6815C23.6954 15.7451 22.0992 14.1753 20.1302 14.1753C18.1611 14.1753 16.5649 15.7451 16.5649 17.6815C16.5649 19.618 18.1611 21.1878 20.1302 21.1878Z" fill="#61DAFB"/>
<path d="M20.1304 24.8651C30.6959 24.8651 39.2609 21.6489 39.2609 17.6816C39.2609 13.7142 30.6959 10.498 20.1304 10.498C9.56499 10.498 1 13.7142 1 17.6816C1 21.6489 9.56499 24.8651 20.1304 24.8651Z" stroke="#61DAFB" stroke-width="2"/>
<path d="M13.8048 21.2733C19.0876 30.2719 26.2022 35.9586 29.6958 33.975C33.1894 31.9913 31.7391 23.0884 26.4563 14.0898C21.1736 5.09119 14.059 -0.595526 10.5654 1.38815C7.07175 3.37183 8.52211 12.2747 13.8048 21.2733Z" stroke="#61DAFB" stroke-width="2"/>
<path d="M13.8048 14.0899C8.52204 23.0885 7.07168 31.9913 10.5653 33.975C14.0589 35.9587 21.1735 30.272 26.4563 21.2734C31.739 12.2748 33.1893 3.37189 29.6957 1.38822C26.2021 -0.595461 19.0875 5.09126 13.8048 14.0899Z" stroke="#61DAFB" stroke-width="2"/>
</svg>
