<svg viewBox="0 0 40 40" fill="none" xmlns="http://www.w3.org/2000/svg">
<g clip-path="url(#clip0_1355_1251)">
<path d="M28.4834 14.7699C28.2821 13.7188 27.751 12.7594 26.9672 12.031C26.1833 11.3027 25.1877 10.8434 24.1251 10.7199L23.7167 10.6699C23.0488 10.5852 22.4347 10.2602 21.989 9.75566C21.5433 9.25108 21.2966 8.60146 21.2951 7.92823V6.50157C22.0137 6.20316 22.6073 5.66596 22.9758 4.98064C23.3443 4.29532 23.465 3.50385 23.3177 2.73983C23.1703 1.97581 22.7638 1.28604 22.1669 0.786935C21.5699 0.287834 20.8191 0.00997695 20.041 0.000263571C19.263 -0.00944981 18.5054 0.249576 17.8962 0.733618C17.287 1.21766 16.8634 1.89707 16.697 2.65717C16.5306 3.41728 16.6316 4.21151 16.9828 4.90582C17.3341 5.60013 17.9141 6.15198 18.6251 6.46823V7.9249C18.626 9.24919 19.1099 10.5276 19.9859 11.5206C20.8619 12.5135 22.0699 13.1526 23.3834 13.3182L23.7917 13.3716C25.0651 13.5316 25.6984 14.4716 25.8684 15.2966C26.0351 16.1216 25.8184 17.2349 24.7051 17.8799C24.1668 18.1927 23.5667 18.3844 22.9467 18.4416L16.8134 19.0182C15.809 19.1133 14.837 19.4236 13.9634 19.9282C13.0312 20.4551 12.2913 21.2656 11.8513 22.2418C11.4113 23.218 11.2941 24.3092 11.5167 25.3566C11.718 26.4076 12.2492 27.3671 13.033 28.0954C13.8168 28.8238 14.8124 29.2831 15.8751 29.4066L16.2834 29.4599C16.951 29.5445 17.565 29.8693 18.0106 30.3735C18.4563 30.8777 18.7031 31.527 18.7051 32.1999V33.4949C17.9862 33.7951 17.3931 34.3342 17.0256 35.0211C16.6582 35.708 16.5391 36.5007 16.6884 37.2652C16.8377 38.0298 17.2462 38.7194 17.845 39.2177C18.4439 39.7159 19.1963 39.9922 19.9752 40C20.7542 40.0078 21.512 39.7465 22.1206 39.2604C22.7293 38.7742 23.1515 38.0928 23.316 37.3314C23.4806 36.57 23.3773 35.7751 23.0237 35.081C22.6701 34.3869 22.0877 33.8361 21.3751 33.5216V32.1999C21.374 30.8754 20.89 29.5967 20.0136 28.6037C19.1373 27.6108 17.9289 26.9718 16.6151 26.8066L16.2084 26.7532C14.9351 26.5932 14.3001 25.6532 14.1317 24.8282C13.9651 24.0032 14.1817 22.8899 15.2934 22.2449C15.8327 21.9316 16.4339 21.7399 17.0551 21.6832L23.1884 21.1082C24.1928 21.0132 25.1648 20.7028 26.0384 20.1982C26.9697 19.6703 27.7088 18.8594 28.1484 17.8831C28.588 16.9068 28.7054 15.8158 28.4834 14.7682V14.7699ZM24.0617 22.6166C23.8209 22.6592 23.5785 22.6926 23.3351 22.7166L20.7634 22.9616L23.9801 26.4932C24.9523 27.5594 25.4908 28.9504 25.4901 30.3932H28.1667C28.1677 28.2842 27.38 26.2511 25.9584 24.6932L24.0617 22.6166ZM15.7234 17.4332C16.0238 17.3708 16.3277 17.3263 16.6334 17.2999L19.0117 17.0732L15.7817 13.5332C14.8101 12.4669 14.2722 11.0759 14.2734 9.63323H11.6051C11.6051 11.7449 12.3884 13.7716 13.8117 15.3332L15.7234 17.4332Z" fill="#3578E5"/>
</g>
<defs>
<clipPath id="clip0_1355_1251">
<rect width="40" height="40" fill="white"/>
</clipPath>
</defs>
</svg>
