<svg viewBox="0 0 40 40" fill="none" xmlns="http://www.w3.org/2000/svg">
<g clip-path="url(#clip0_1355_1373)">
<path d="M37.0316 19.6399L19.6399 37.0316C18.9616 37.7099 18.9616 38.8116 19.6399 39.4916C20.3183 40.1699 21.4199 40.1699 22.0999 39.4916L39.4916 22.0999C40.1699 21.4199 40.1699 20.3183 39.4916 19.6399C38.8116 18.9616 37.7099 18.9616 37.0316 19.6399ZM33.5533 0.508262L0.508262 33.5533C-0.170072 34.2316 -0.170072 35.3333 0.508262 36.0133C1.18826 36.6916 2.28993 36.6916 2.96826 36.0133L36.0133 2.96826C36.6916 2.28993 36.6916 1.18826 36.0133 0.508262C35.3333 -0.170072 34.2316 -0.170072 33.5533 0.508262Z" fill="white"/>
</g>
<defs>
<clipPath id="clip0_1355_1373">
<rect width="40" height="40" fill="white"/>
</clipPath>
</defs>
</svg>
