<svg viewBox="0 0 32 40" fill="none" xmlns="http://www.w3.org/2000/svg">
<g clip-path="url(#clip0_1355_1290)">
<path d="M1.23406 36.7805L0.00143264 3.83363C-0.0392761 2.74553 0.792436 1.82337 1.87579 1.75545L29.8118 0.00397624C30.9145 -0.0651601 31.8643 0.775531 31.9333 1.88171C31.9358 1.92339 31.9371 1.96514 31.9371 2.0069V37.9083C31.9371 39.0166 31.0415 39.9151 29.9366 39.9151C29.9067 39.9151 29.8767 39.9144 29.8468 39.9131L3.14345 38.71C2.10345 38.6631 1.2731 37.824 1.23406 36.7805Z" fill="#FF4785"/>
<mask id="mask0_1355_1290" style="mask-type:luminance" maskUnits="userSpaceOnUse" x="0" y="0" width="32" height="40">
<path d="M1.23406 36.7805L0.00143264 3.83363C-0.0392761 2.74553 0.792436 1.82337 1.87579 1.75545L29.8118 0.00397624C30.9145 -0.0651601 31.8643 0.775531 31.9333 1.88171C31.9358 1.92339 31.9371 1.96514 31.9371 2.0069V37.9083C31.9371 39.0166 31.0415 39.9151 29.9366 39.9151C29.9067 39.9151 29.8767 39.9144 29.8468 39.9131L3.14345 38.71C2.10345 38.6631 1.2731 37.824 1.23406 36.7805Z" fill="white"/>
</mask>
<g mask="url(#mask0_1355_1290)">
<path d="M23.5831 4.9062L23.7739 0.302381L27.6104 0L27.7756 4.74776C27.7814 4.913 27.6525 5.05162 27.4878 5.05739C27.4173 5.05986 27.3481 5.03718 27.2927 4.99337L25.8133 3.82425L24.0616 5.15715C23.9303 5.25707 23.7431 5.23129 23.6435 5.09956C23.6016 5.04411 23.5802 4.97574 23.5831 4.9062ZM18.6766 15.0446C18.6766 15.8253 23.9194 15.4511 24.6232 14.9027C24.6232 9.5858 21.7792 6.79187 16.5713 6.79187C11.3635 6.79187 8.44562 9.62927 8.44562 13.8854C8.44562 21.2981 18.4181 21.44 18.4181 25.4833C18.4181 26.6183 17.8641 27.2921 16.6452 27.2921C15.057 27.2921 14.4291 26.4785 14.503 23.712C14.503 23.1119 8.44562 22.9248 8.26095 23.712C7.79069 30.4162 11.9544 32.3499 16.7191 32.3499C21.3359 32.3499 24.9556 29.8813 24.9556 25.4124C24.9556 17.4676 14.8354 17.6804 14.8354 13.7435C14.8354 12.1475 16.0173 11.9347 16.7191 11.9347C17.4578 11.9347 18.7874 12.0653 18.6766 15.0446Z" fill="white"/>
</g>
</g>
<defs>
<clipPath id="clip0_1355_1290">
<rect width="32" height="40" fill="white"/>
</clipPath>
</defs>
</svg>
