<svg viewBox="0 0 40 24" fill="none" xmlns="http://www.w3.org/2000/svg">
<g clip-path="url(#clip0_1355_1206)">
<mask id="mask0_1355_1206" style="mask-type:luminance" maskUnits="userSpaceOnUse" x="0" y="0" width="40" height="24">
<path d="M0 0H40V24H0V0Z" fill="white"/>
</mask>
<g mask="url(#mask0_1355_1206)">
<path fill-rule="evenodd" clip-rule="evenodd" d="M20 0C14.6667 0 11.3333 2.66667 10 8C12 5.33333 14.3333 4.33333 17 5C18.5215 5.38 19.6089 6.48444 20.8126 7.70593C22.7733 9.6963 25.043 12 30 12C35.3333 12 38.6667 9.33333 40 4C38 6.66667 35.6667 7.66667 33 7C31.4785 6.62 30.3911 5.51556 29.1874 4.29407C27.2267 2.3037 24.957 0 20 0ZM10 12C4.66667 12 1.33333 14.6667 0 20C2 17.3333 4.33333 16.3333 7 17C8.52148 17.3807 9.60889 18.4844 10.8126 19.7059C12.7733 21.6963 15.043 24 20 24C25.3333 24 28.6667 21.3333 30 16C28 18.6667 25.6667 19.6667 23 19C21.4785 18.62 20.3911 17.5156 19.1874 16.2941C17.2267 14.3037 14.957 12 10 12Z" fill="#38BDF8"/>
</g>
</g>
<defs>
<clipPath id="clip0_1355_1206">
<rect width="40" height="24" fill="white"/>
</clipPath>
</defs>
</svg>
