<svg viewBox="0 0 40 40" fill="none" xmlns="http://www.w3.org/2000/svg">
<g clip-path="url(#clip0_1355_1176)">
<path d="M0 20V40H40V0H0V20Z" fill="#007ACC"/>
<path d="M8.84566 20.1326L8.83301 21.7706H14.0393V36.5643H17.7221V21.7706H22.9283V20.1643C22.9283 19.2753 22.9093 18.5324 22.8839 18.5134C22.8649 18.4881 19.6966 18.4753 15.8554 18.4817L8.86488 18.5007L8.84582 20.1324L8.84566 20.1326ZM32.2763 18.4542C33.2921 18.7082 34.0668 19.1589 34.7779 19.8954C35.1461 20.2892 35.6921 21.0067 35.7366 21.1781C35.7491 21.2289 34.0096 22.3971 32.9557 23.051C32.9175 23.0765 32.765 22.9114 32.5936 22.6573C32.0794 21.9082 31.5397 21.5843 30.7143 21.5273C29.5018 21.4446 28.7207 22.0796 28.7271 23.1398C28.7271 23.451 28.7714 23.6351 28.8985 23.8892C29.1652 24.4415 29.6604 24.7717 31.216 25.4446C34.0794 26.6765 35.3047 27.4892 36.0668 28.6446C36.9175 29.9337 37.108 31.9907 36.5302 33.5209C35.8954 35.1843 34.3208 36.3146 32.1047 36.6892C31.4191 36.8098 29.7938 36.7907 29.0572 36.6574C27.451 36.3717 25.9271 35.5781 24.9874 34.5368C24.6191 34.1304 23.9016 33.0701 23.9461 32.9939C23.9652 32.9685 24.1302 32.867 24.3143 32.759C24.4921 32.6574 25.1652 32.2699 25.8 31.9018L26.9493 31.2351L27.1905 31.5907C27.5271 32.1049 28.2635 32.8098 28.708 33.0446C29.9841 33.7178 31.7366 33.6224 32.6 32.8478C32.9683 32.5114 33.1207 32.1621 33.1207 31.6478C33.1207 31.1843 33.0635 30.9812 32.8222 30.6321C32.5113 30.1876 31.8763 29.8129 30.073 29.0321C28.0096 28.1431 27.1207 27.5907 26.308 26.7145C25.8382 26.2067 25.3936 25.3939 25.2096 24.7145C25.0572 24.1495 25.0189 22.7335 25.1397 22.1621C25.5652 20.1684 27.0699 18.7781 29.2413 18.3653C29.946 18.232 31.5841 18.2826 32.2763 18.4542Z" fill="white"/>
</g>
<defs>
<clipPath id="clip0_1355_1176">
<rect width="40" height="40" rx="8" fill="white"/>
</clipPath>
</defs>
</svg>
