<svg viewBox="0 0 40 40" fill="none" xmlns="http://www.w3.org/2000/svg">
<path d="M30.0211 20.0015C30.249 20.4633 30.4748 20.9261 30.7051 21.3867C33.7806 27.5399 36.8568 33.6928 39.9326 39.8459C39.9538 39.8882 39.973 39.9314 40 39.989C39.9477 39.9922 39.9062 39.9971 39.8648 39.9971C35.9425 39.9974 32.0201 39.997 28.0978 40.0001C28.0068 40.0002 27.9697 39.9675 27.9325 39.8931C26.6327 37.2907 25.3298 34.69 24.0296 32.0879C22.7094 29.4458 21.3917 26.8026 20.0726 24.16C20.0539 24.1225 20.0315 24.0869 20.0011 24.0333C19.9681 24.095 19.9431 24.1393 19.9203 24.1847C19.5568 24.9099 19.1933 25.6352 18.8304 26.3608C18.4402 27.1408 18.0519 27.9217 17.6607 28.7011C17.3163 29.3872 16.966 30.0703 16.6234 30.7573C15.1064 33.7999 13.5909 36.8434 12.0769 39.8876C12.0372 39.9675 11.9948 40 11.9008 39.9999C7.98289 39.997 4.06503 39.9974 0.147137 39.9974H0C0.16169 39.6704 0.312718 39.3618 0.466332 39.0545C3.63212 32.7217 6.7982 26.3891 9.96417 20.0564C9.96998 20.0447 9.97491 20.0326 9.98981 20.0064C10.028 19.9424 10.0594 19.8939 10.085 19.8426C12.0228 15.9668 13.9601 12.0907 15.8985 8.21509C15.9275 8.15709 15.9697 8.10572 16.0058 8.05127C16.0408 8.10049 16.083 8.14611 16.1097 8.19949C17.3806 10.7375 18.6502 13.2762 19.9198 15.8149C19.9444 15.8641 19.9669 15.9143 19.9981 15.9807C20.0314 15.9162 20.0595 15.8629 20.0864 15.809C21.3639 13.2559 22.6414 10.7028 23.9193 8.14992C23.9361 8.11654 23.9599 8.08673 23.9981 8.05698C24.047 8.11201 24.0812 8.16381 24.1088 8.21893C26.0449 12.0908 27.9803 15.963 29.9167 19.8347C29.9459 19.8931 29.986 19.946 30.0211 20.0015Z" fill="#4FC08D"/>
<path d="M30.0233 19.9917C29.9861 19.9459 29.946 19.893 29.9168 19.8346C27.9804 15.9628 26.0449 12.0907 24.1088 8.21882C24.0813 8.16368 24.0471 8.1119 24.0075 8.0542C24.0133 7.99778 24.0191 7.94155 24.0428 7.89417C25.3339 5.30793 26.6271 2.72276 27.9162 0.135555C27.9676 0.0325558 28.0252 -5.32622e-05 28.138 0.000106716C30.8382 0.00338628 33.5384 0.00263974 36.2387 0.00263974H39.9996C39.9676 0.073057 39.9478 0.120624 39.9248 0.166618C36.6476 6.72374 33.3702 13.2808 30.093 19.8379C30.0693 19.8854 30.0479 19.934 30.0233 19.9917ZM16.0057 8.04089C15.9698 8.10558 15.9276 8.15696 15.8986 8.21495C13.9602 12.0905 12.0229 15.9667 10.0851 19.8425C10.0594 19.8938 10.0281 19.9422 9.99174 19.9966C9.75736 19.5407 9.53311 19.079 9.30369 18.6199C6.23232 12.4736 3.1602 6.32761 0.0884276 0.181496C0.0632385 0.131129 0.0398617 0.0799095 0.00683594 0.0105855C0.0722745 0.00733256 0.118868 0.00293308 0.165434 0.00293308C4.0697 0.00263978 7.97394 0.00317303 11.8782 1.22581e-07C11.9887 -7.98667e-05 12.0403 0.0389817 12.0875 0.133742C13.3698 2.70502 14.6551 5.27476 15.9387 7.84535C15.9678 7.90369 15.9835 7.96874 16.0057 8.04089Z" fill="#35495E"/>
</svg>
